<?xml version="1.0" encoding="UTF-8"?>
<!DOCTYPE svg PUBLIC "-//W3C//DTD SVG 1.1//EN" "http://www.w3.org/Graphics/SVG/1.1/DTD/svg11.dtd">
<!-- Creator: CorelDRAW -->
<svg xmlns="http://www.w3.org/2000/svg" xml:space="preserve" width="2.83333in" height="2.83333in" style="shape-rendering:geometricPrecision; text-rendering:geometricPrecision; image-rendering:optimizeQuality; fill-rule:evenodd; clip-rule:evenodd"
viewBox="0 0 2.83333 2.83333"
 xmlns:xlink="http://www.w3.org/1999/xlink">
 <defs>
  <style type="text/css">
   <![CDATA[
    .fil0 {fill:black}
    .fil1 {fill:white}
   ]]>
  </style>
 </defs>
 <g id="Layer_x0020_1">
  <metadata id="CorelCorpID_0Corel-Layer"/>
  <circle class="fil0" cx="1.41667" cy="1.41667" r="1.41667"/>
  <path class="fil1" d="M1.65028 1.44162l-0.0623858 0c-0.0138661,0 -0.0249567,-0.0110906 -0.0249567,-0.0249567 0,-0.0138622 0.0110906,-0.0249528 0.0249567,-0.0249528l0.0623858 0c0.0138622,0 0.0249567,0.0110906 0.0249567,0.0249528 0,0.0138661 -0.0110945,0.0249567 -0.0249567,0.0249567zm-0.862945 0.314035l-0.204583 -0.0409173c-0.0110906,-0.00276772 -0.0194094,-0.0124724 -0.0194094,-0.0235669l0 -0.103768 -3.93701e-006 -0.000212598 3.93701e-006 -0.000208661 -3.93701e-006 -0.112 0 -9.05512e-005 0 -9.05512e-005 0 -0.0817087c0,-0.0110906 0.0083189,-0.0207953 0.0194094,-0.0235669l0.266657 -0.0620433 0.171445 -0.244346c0.00415748,-0.00693701 0.0124764,-0.00970472 0.0194094,-0.00970472l0.123394 0 0 -0.0582323c0,-0.0388189 0.0318898,-0.0707087 0.0707087,-0.0707087l0.0901142 0c0.0388189,0 0.0707047,0.0318898 0.0707047,0.0707087l0 0.0582283 0.134484 0c0.00693307,0 0.0138622,0.00276772 0.0194094,0.00970472l0.195567 0.244122 0.37563 0.13298c0.00970472,0.00277165 0.0166378,0.0124764 0.0166378,0.022185l0 0.0124724 0 0.0859567 0.108138 0c0.0138661,0 0.0249567,0.0110906 0.0249567,0.0249567l0 0.112295c-0.00138583,0.0152559 -0.0124803,0.0263425 -0.0249567,0.0263425l-0.108138 0 0 0.0110984c0,0.0138622 -0.0110906,0.0249528 -0.0249567,0.0249528l-0.132197 -3.93701e-006c-0.0215197,0.084937 -0.098248,0.148346 -0.190835,0.148346 -0.0919134,0 -0.169783,-0.0640984 -0.191094,-0.149728l-0.427394 -3.93701e-006c-0.0210354,0.0856339 -0.0980827,0.149732 -0.191173,0.149732 -0.0931417,0 -0.171878,-0.0658268 -0.191925,-0.153181zm0.122815 -0.451291l0.361642 0 0 -0.201028 -0.219051 0 -0.142591 0.201028zm0.411555 0l0.357228 0 -0.161748 -0.201028 -0.19548 0 0 0.201028zm0.815205 0.306394l0 0.0637756 0.0845709 0 0 -0.0637756 -0.0845709 0zm-0.245531 -0.0059685c-0.0189094,-0.0180315 -0.0424252,-0.0311102 -0.0685551,-0.037252l-0.000437008 -0.000106299 -3.93701e-006 0c-0.00119291,-0.000275591 -0.0023937,-0.00053937 -0.00359843,-0.000783465l-3.93701e-006 -3.93701e-006c-0.00120472,-0.000248031 -0.00241339,-0.000480315 -0.00362992,-0.00069685l-3.93701e-006 0c-0.00121654,-0.000216535 -0.00243701,-0.00042126 -0.00366142,-0.000610236 -0.00122441,-0.000188976 -0.00246063,-0.000362205 -0.00369291,-0.000519685l-3.93701e-006 0c-0.00123622,-0.00015748 -0.00247638,-0.000299213 -0.00372047,-0.000425197 -0.00124409,-0.000125984 -0.00249606,-0.000240157 -0.00374803,-0.000334646 -0.00125197,-9.44882e-005 -0.00251575,-0.000177165 -0.00377559,-0.000240157 -0.00125984,-6.29921e-005 -0.00252756,-0.000114173 -0.00379921,-0.000145669 -0.00126772,-3.14961e-005 -0.00254331,-4.72441e-005 -0.00382283,-4.72441e-005 -0.0817953,0 -0.148346,0.0665472 -0.148346,0.148346 0,0.0043937 0.000204724,0.00873622 0.00057874,0.0130354 0.000192913,0.00133071 0.000456693,0.00255512 0.000807087,0.00360236 0.00116535,0.00291339 0.00135039,0.00607087 0.000866142,0.00916535 0.012248,0.0695394 0.0730984,0.122539 0.146094,0.122539 0.0817953,0 0.148343,-0.0665472 0.148343,-0.148343 0,-0.039626 -0.0156102,-0.0756654 -0.0410079,-0.102303l-0.00231496 -0.00237402 -0.000173228 -0.000173228c-0.000787402,-0.000787402 -0.00158661,-0.00155906 -0.00238976,-0.00233071zm-0.911425 -0.0411575c-0.0814803,0.000377953 -0.14765,0.0667717 -0.14765,0.148339 0,0.00693307 0.00138583,0.0138622 0.00138583,0.0194094 0.000515748,0.0030748 0.000456693,0.00596063 -9.84252e-005,0.00866142 0.0131575,0.0684173 0.0734685,0.120272 0.145669,0.120272 0.0817953,0 0.148346,-0.0665472 0.148346,-0.148343 0,-0.0815709 -0.0661732,-0.147961 -0.147654,-0.148339zm1.00583 0.146949l0.101213 0 0 -0.00280709c-0.000901575,-0.00258661 -0.00138976,-0.00537402 -0.00138976,-0.00828346 0,-0.00290945 0.000488189,-0.00569291 0.00138976,-0.00828346l0 -0.0790591 -0.0665512 0c-0.0138622,0 -0.0249567,-0.0110945 -0.0249567,-0.0249567l0 -0.112299c0,-0.00965354 0.00538583,-0.0179567 0.0133307,-0.0221142l-0.278957 -0.0987047c-0.00240945,-3.93701e-005 -0.00479134,-0.000433071 -0.00707087,-0.0011811l-0.853063 0 -0.25787 0.0596102 0 0.037437 0.0693189 0c0.0138661,0 0.0249567,0.0110906 0.0249567,0.0249528l0 0.112299c-0.00138189,0.015252 -0.0124764,0.0249567 -0.0249567,0.0249567l-0.0693189 0 0 0.0596142 0.170528 0.0332717c0.00409055,-0.103701 0.0874134,-0.187248 0.191815,-0.18987l6.29921e-005 -3.93701e-006c0.00165748,-4.33071e-005 0.0033189,-6.29921e-005 0.00498819,-6.29921e-005l3.93701e-006 3.93701e-006c0.00168898,0 0.00337008,1.5748e-005 0.00505118,5.90551e-005l3.93701e-006 3.93701e-006c0.105839,0.00267717 0.191811,0.0889646 0.191811,0.195413l0.415925 3.93701e-006 3.54331e-005 -0.00138976c0.000511811,-0.0363031 0.0110079,-0.0703386 0.0288622,-0.0994567 0.0329213,-0.0540591 0.0909134,-0.0909921 0.157894,-0.094378l3.93701e-006 -3.93701e-006c0.00166929,-8.26772e-005 0.00334252,-0.000145669 0.00501969,-0.000188976 0.0016811,-4.33071e-005 0.00336614,-6.29921e-005 0.00505512,-6.29921e-005 0.00168898,0 0.00337402,2.3622e-005 0.00505512,6.29921e-005 0.0016811,4.33071e-005 0.00335433,0.000102362 0.00502362,0.000188976l0 3.93701e-006c0.10352,0.00522835 0.186787,0.0904646 0.186787,0.195224zm0.101213 -0.146957l0 -0.0637756 -0.0429843 0 0 0.0637756 0.0429843 0zm-1.47514 -0.0637756l0 0.0637756 0.0443661 0 0 -0.0637756 -0.0443661 0zm0.367398 0.309165c-0.0540669,0 -0.0970472,-0.0429764 -0.0970472,-0.0970433 0,-0.0540709 0.0429803,-0.0970472 0.0970472,-0.0970472 0.0554567,0 0.098437,0.0429764 0.098437,0.0970472 0,0.0540669 -0.0429803,0.0970433 -0.098437,0.0970433zm0 -0.145567c-0.0263425,0 -0.0485236,0.0221811 -0.0485236,0.0485236 0,0.0263386 0.022185,0.0485197 0.0485236,0.0485197 0.0277283,0 0.0499134,-0.0207953 0.0499134,-0.0485197 0,-0.0277283 -0.0207992,-0.0485236 -0.0499134,-0.0485236zm0.809661 0.145567c-0.0554567,0 -0.098437,-0.0429764 -0.098437,-0.0970433 0,-0.0540709 0.0429803,-0.0970472 0.098437,-0.0970472 0.0540669,0 0.0970472,0.0429764 0.0970472,0.0970472 0,0.0540669 -0.0429803,0.0970433 -0.0970472,0.0970433zm0 -0.145567c-0.0277283,0 -0.0499134,0.0207953 -0.0499134,0.0485236 0,0.0277244 0.022185,0.0485197 0.0499134,0.0485197 0.0277244,0 0.0485236,-0.0207953 0.0485236,-0.0485197 0,-0.0277283 -0.0207953,-0.0485236 -0.0485236,-0.0485236zm-0.500457 -0.61002c0.00258661,-0.000901575 0.00537402,-0.00138976 0.00828346,-0.00138976 0.00290945,0 0.00569685,0.000488189 0.00828346,0.00138976l0.041626 0 0 -0.0582283c0,-0.0124764 -0.00970472,-0.022185 -0.0221811,-0.022185l-0.0901181 0c-0.0124764,0 -0.022185,0.00970472 -0.022185,0.022185l3.93701e-006 0.0582283 0.0762874 0zm-0.109559 0.465831l-0.0623937 0c-0.0138622,0 -0.0249528,-0.0110906 -0.0249528,-0.0249567 0,-0.0138622 0.0110906,-0.0249528 0.0249528,-0.0249528l0.0623937 0c0.0138622,0 0.0249528,0.0110906 0.0249528,0.0249528 0,0.0138661 -0.0124764,0.0249567 -0.0249528,0.0249567zm0.134476 0l-0.0623858 0c-0.0138622,0 -0.0249567,-0.0110906 -0.0249567,-0.0249567 0,-0.0138622 0.0110945,-0.0249528 0.0249567,-0.0249528l0.0623858 0c0.0138622,0 0.0249567,0.0110906 0.0249567,0.0249528 0,0.0138661 -0.0110906,0.0249567 -0.0249567,0.0249567zm0.13587 0l-0.0623858 0c-0.0138622,0 -0.0249567,-0.0110906 -0.0249567,-0.0249567 0,-0.0138622 0.0110945,-0.0249528 0.0249567,-0.0249528l0.0623858 0c0.0138622,0 0.0249567,0.0110906 0.0249567,0.0249528 0,0.0138661 -0.0124803,0.0249567 -0.0249567,0.0249567zm0.13448 0l-0.0623898 0c-0.0138622,0 -0.0249528,-0.0110906 -0.0249528,-0.0249567 0,-0.0138622 0.0110906,-0.0249528 0.0249528,-0.0249528l0.0623898 0c0.0138661,0 0.0249567,0.0110906 0.0249567,0.0249528 0,0.0138661 -0.0110906,0.0249567 -0.0249567,0.0249567zm-0.472764 -0.0776378l-0.0623858 0c-0.0138661,0 -0.0249567,-0.0110906 -0.0249567,-0.0249567 0,-0.0138622 0.0110906,-0.0249528 0.0249567,-0.0249528l0.0623858 0c0.0138622,0 0.0249528,0.0110906 0.0249528,0.0249528 0,0.0138661 -0.0110866,0.0249567 -0.0249528,0.0249567zm0.13587 0l-0.0623898 0c-0.0138622,0 -0.0249528,-0.0110906 -0.0249528,-0.0249567 0,-0.0138622 0.0110906,-0.0249528 0.0249528,-0.0249528l0.0623898 0c0.0138622,0 0.0249528,0.0110906 0.0249528,0.0249528 0,0.0138661 -0.0124803,0.0249567 -0.0249528,0.0249567zm0.13448 0l-0.0623898 0c-0.0138622,0 -0.0249567,-0.0110906 -0.0249567,-0.0249567 0,-0.0138622 0.0110945,-0.0249528 0.0249567,-0.0249528l0.0623898 0c0.0138622,0 0.0249567,0.0110906 0.0249567,0.0249528 0,0.0138661 -0.0110945,0.0249567 -0.0249567,0.0249567zm0.13448 0l-0.0623898 0c-0.0138622,0 -0.0249528,-0.0110906 -0.0249528,-0.0249567 0,-0.0138622 0.0110906,-0.0249528 0.0249528,-0.0249528l0.0623898 0c0.0138622,0 0.0249528,0.0110906 0.0249528,0.0249528 0,0.0138661 -0.0110866,0.0249567 -0.0249528,0.0249567z"/>
 </g>
</svg>
