<?xml version="1.0" encoding="UTF-8"?>
<!DOCTYPE svg PUBLIC "-//W3C//DTD SVG 1.1//EN" "http://www.w3.org/Graphics/SVG/1.1/DTD/svg11.dtd">
<!-- Creator: CorelDRAW -->
<svg xmlns="http://www.w3.org/2000/svg" xml:space="preserve" width="512px" height="512px" style="shape-rendering:geometricPrecision; text-rendering:geometricPrecision; image-rendering:optimizeQuality; fill-rule:evenodd; clip-rule:evenodd"
viewBox="0 0 512 512"
 xmlns:xlink="http://www.w3.org/1999/xlink">
 <defs>
  <style type="text/css">
   <![CDATA[
    .fil0 {fill:url(#id0)}
   ]]>
  </style>
  <linearGradient id="id0" gradientUnits="userSpaceOnUse" x1="-0" y1="256" x2="512.001" y2="256">
   <stop offset="0" style="stop-color:#990000"/>
   <stop offset="1" style="stop-color:red"/>
  </linearGradient>
 </defs>
 <g id="Layer_x0020_1">
  <metadata id="CorelCorpID_0Corel-Layer"/>
  <path class="fil0" d="M67.199 357.698l-61.375 -12.2752c-3.32718,-0.830318 -5.82285,-3.74174 -5.82285,-7.0701l-0.00118111 -89.4239c0,-3.32718 2.49568,-6.2386 5.82285,-7.0701l79.9975 -18.613 51.4336 -73.3042c1.24725,-2.08111 3.74292,-2.91143 5.82285,-2.91143l37.0182 0 0 -17.4697c0,-11.6457 9.56696,-21.2127 21.2127,-21.2127l27.0343 0c11.6457,0 21.2115,9.56696 21.2115,21.2127l0 17.4686 40.3454 0c2.07993,0 4.15867,0.830318 5.82285,2.91143l58.6703 73.2368 112.689 39.8942c4.94057,1.57796 4.99135,6.15711 4.99135,10.3973l0 25.7871 32.4414 0c4.15986,0 7.48703,3.32718 7.48703,7.48703l0 33.6887c-0.415749,4.57679 -3.74411,7.90278 -7.48703,7.90278l-32.4414 0c0,5.13899 -0.803152,10.8154 -7.48703,10.8154l-39.6592 -0.00118111c-6.45593,25.4812 -29.4745,44.5041 -57.2506,44.5041 -27.5741,0 -50.9352,-19.2296 -57.3285,-44.9186l-128.219 -0.00118111c-6.31065,25.6902 -29.4249,44.9198 -57.3521,44.9198 -27.9426,0 -51.5635,-19.7481 -57.5777,-45.9545zm117.472 -70.9195l-18.7182 0c-9.66853,0 -9.66971,-14.9729 0,-14.9729l18.7182 0c10.0099,0 9.53507,14.9729 0,14.9729zm40.343 0l-18.7158 0c-9.66971,0 -9.6709,-14.9729 0,-14.9729l18.7158 0c9.6709,0 9.6709,14.9729 0,14.9729zm40.7611 0l-18.7158 0c-9.66971,0 -9.6709,-14.9729 0,-14.9729l18.7158 0c10.0111,0 9.53625,14.9729 0,14.9729zm40.3442 0l-18.717 0c-9.66853,0 -9.66971,-14.9729 0,-14.9729l18.717 0c9.67208,0 9.6709,14.9729 0,14.9729zm-141.83 -23.2914l-18.7158 0c-9.6709,0 -9.67208,-14.9729 0,-14.9729l18.7158 0c9.66971,0 9.66971,14.9729 0,14.9729zm40.7611 0l-18.717 0c-9.66853,0 -9.66971,-14.9729 0,-14.9729l18.717 0c10.0099,0 9.53507,14.9729 0,14.9729zm40.3442 0l-18.717 0c-9.66971,0 -9.6709,-14.9729 0,-14.9729l18.717 0c9.6709,0 9.66971,14.9729 0,14.9729zm40.3442 0l-18.717 0c-9.66853,0 -9.66971,-14.9729 0,-14.9729l18.717 0c9.66971,0 9.66971,14.9729 0,14.9729zm40.3442 0l-18.7158 0c-9.6709,0 -9.67208,-14.9729 0,-14.9729l18.7158 0c9.6709,0 9.66971,14.9729 0,14.9729zm145.989 50.7415l0 19.1327 25.3713 0 0 -19.1327 -25.3713 0zm-14.9729 0.41693l-19.9654 0c-4.15867,0 -7.48703,-3.32836 -7.48703,-7.48703l0 -33.6899c0,-2.89607 1.61457,-5.38702 3.99922,-6.63427 -11.7957,-4.17403 -79.551,-28.9654 -85.8085,-29.9658l-255.92 0 -77.3613 17.8831 0 11.2311 20.7957 0c4.15986,0 7.48703,3.32718 7.48703,7.48585l0 33.6899c-0.414568,4.5756 -3.74292,7.48703 -7.48703,7.48703l-20.7957 0 0 17.8843 51.1584 9.98153c1.24607,-31.5757 26.6576,-57.2541 59.0612,-56.9801 32.3186,0 59.06,26.145 59.06,58.6431l124.778 0.00118111c0.84331,-33.0497 28.1753,-61.5179 62.1392,-58.564 31.682,2.31615 55.9821,27.1371 55.9821,58.564l30.3639 0c0,-9.82444 0,-19.6902 0,-29.53zm-442.543 -14.5571l13.3099 0 0 -19.1327 -13.3099 0 0 19.1327zm442.543 -19.1327l-12.8953 0 0 19.1327 12.8953 0 0 -19.1327zm-222.103 -133.927c0,-28.6808 4.28269,-24.1241 -33.6899,-24.1241 -3.74292,0 -6.65553,2.91143 -6.65553,6.65553l0.00118111 17.4686c13.4552,0 26.8961,0 40.3442,0zm-22.4599 75.2813l0 -60.3085 -65.7156 0 -42.7773 60.3085 108.493 0zm14.9741 -60.3085l0 60.3085 107.169 0 -48.5246 -60.3085 -58.6443 0zm140.165 211.704c-16.6371,0 -29.5312,-12.893 -29.5312,-29.1131 0,-16.2213 12.8941,-29.1143 29.5312,-29.1143 16.2201,0 29.1143,12.893 29.1143,29.1143 0,16.2201 -12.8941,29.1131 -29.1143,29.1131zm0 -43.6702c-19.702,0 -19.7032,29.1131 0,29.1131 19.2178,0 19.2178,-29.1131 0,-29.1131zm-242.899 43.6702c-16.2201,0 -29.1143,-12.893 -29.1143,-29.1131 0,-16.2213 12.8941,-29.1143 29.1143,-29.1143 16.6371,0 29.5312,12.893 29.5312,29.1143 0,16.2201 -12.8941,29.1131 -29.5312,29.1131zm0 -43.6702c-19.0997,0 -19.0997,29.1131 0,29.1131 19.5237,0 19.9938,-29.1131 0,-29.1131zm0.209056 -29.9446c-27.6308,0.128741 -47.3659,23.752 -43.91,52.923 3.94726,20.5253 22.0406,36.0816 43.7009,36.0816 24.5387,0 44.5041,-19.9642 44.5041,-44.5029 0,-24.4713 -19.8508,-44.3883 -44.295,-44.5017zm274.891 13.8107c-8.31735,-8.70357 -20.1438,-13.813 -32.2005,-13.813 -25.4351,0 -47.3375,22.5898 -44.3316,48.3994 2.6067,22.3855 20.5099,40.6076 44.3316,40.6076 39.7702,0 58.486,-47.6198 32.2005,-75.1939z"/>
 </g>
</svg>
