<?xml version="1.0" encoding="UTF-8"?>
<!DOCTYPE svg PUBLIC "-//W3C//DTD SVG 1.1//EN" "http://www.w3.org/Graphics/SVG/1.1/DTD/svg11.dtd">
<!-- Creator: CorelDRAW -->
<svg xmlns="http://www.w3.org/2000/svg" xml:space="preserve" width="850px" height="850px" style="shape-rendering:geometricPrecision; text-rendering:geometricPrecision; image-rendering:optimizeQuality; fill-rule:evenodd; clip-rule:evenodd"
viewBox="0 0 850 850"
 xmlns:xlink="http://www.w3.org/1999/xlink">
 <defs>
  <style type="text/css">
   <![CDATA[
    .fil2 {fill:#666666}
    .fil0 {fill:#CFCFCF}
    .fil1 {fill:url(#id0)}
   ]]>
  </style>
  <linearGradient id="id0" gradientUnits="userSpaceOnUse" x1="32.4449" y1="425" x2="817.555" y2="425">
   <stop offset="0" style="stop-color:white"/>
   <stop offset="1" style="stop-color:#E6E6E6"/>
  </linearGradient>
 </defs>
 <g id="Layer_x0020_1">
  <metadata id="CorelCorpID_0Corel-Layer"/>
  <g id="_177061496">
   <path id="_177058520" class="fil0" d="M425 0c234.721,0 425,190.279 425,425 0,234.721 -190.279,425 -425,425 -234.721,0 -425,-190.279 -425,-425 0,-234.721 190.279,-425 425,-425z"/>
   <path id="_177059408" class="fil1" d="M425 32.4449c216.802,0 392.555,175.753 392.555,392.555 0,216.802 -175.753,392.555 -392.555,392.555 -216.802,0 -392.555,-175.753 -392.555,-392.555 0,-216.802 175.753,-392.555 392.555,-392.555z"/>
  </g>
  <path class="fil2" d="M236.199 526.698l-61.3749 -12.2752c-3.32717,-0.830316 -5.82284,-3.74174 -5.82284,-7.07009l-0.0011811 -89.4237c0,-3.32717 2.49567,-6.23859 5.82284,-7.07009l79.9973 -18.613 51.4335 -73.304c1.24725,-2.0811 3.74292,-2.91142 5.82284,-2.91142l37.0181 0 0 -17.4697c0,-11.6457 9.56694,-21.2126 21.2126,-21.2126l27.0343 0c11.6457,0 21.2114,9.56694 21.2114,21.2126l0 17.4685 40.3453 0c2.07992,0 4.15867,0.830316 5.82284,2.91142l58.6701 73.2367 112.689 39.8941c4.94056,1.57795 4.99134,6.15709 4.99134,10.3973l0 25.787 32.4414 0c4.15985,0 7.48701,3.32717 7.48701,7.48701l0 33.6886c-0.415748,4.57678 -3.7441,7.90276 -7.48701,7.90276l-32.4414 0c0,5.13898 -0.80315,10.8154 -7.48701,10.8154l-39.6591 -0.0011811c-6.45591,25.4811 -29.4744,44.504 -57.2504,44.504 -27.574,0 -50.9351,-19.2295 -57.3284,-44.9185l-128.218 -0.0011811c-6.31064,25.6902 -29.4248,44.9197 -57.352,44.9197 -27.9425,0 -51.5634,-19.748 -57.5776,-45.9544zm117.471 -70.9194l-18.7181 0c-9.66851,0 -9.66969,-14.9728 0,-14.9728l18.7181 0c10.0099,0 9.53505,14.9728 0,14.9728zm40.343 0l-18.7158 0c-9.66969,0 -9.67088,-14.9728 0,-14.9728l18.7158 0c9.67088,0 9.67088,14.9728 0,14.9728zm40.7611 0l-18.7158 0c-9.66969,0 -9.67088,-14.9728 0,-14.9728l18.7158 0c10.011,0 9.53623,14.9728 0,14.9728zm40.3441 0l-18.7169 0c-9.66851,0 -9.66969,-14.9728 0,-14.9728l18.7169 0c9.67206,0 9.67088,14.9728 0,14.9728zm-141.829 -23.2914l-18.7158 0c-9.67088,0 -9.67206,-14.9728 0,-14.9728l18.7158 0c9.66969,0 9.66969,14.9728 0,14.9728zm40.7611 0l-18.7169 0c-9.66851,0 -9.66969,-14.9728 0,-14.9728l18.7169 0c10.0099,0 9.53505,14.9728 0,14.9728zm40.3441 0l-18.7169 0c-9.66969,0 -9.67088,-14.9728 0,-14.9728l18.7169 0c9.67088,0 9.66969,14.9728 0,14.9728zm40.3441 0l-18.7169 0c-9.66851,0 -9.66969,-14.9728 0,-14.9728l18.7169 0c9.66969,0 9.66969,14.9728 0,14.9728zm40.3441 0l-18.7158 0c-9.67088,0 -9.67206,-14.9728 0,-14.9728l18.7158 0c9.67088,0 9.66969,14.9728 0,14.9728zm145.989 50.7414l0 19.1327 25.3713 0 0 -19.1327 -25.3713 0zm-14.9728 0.41693l-19.9654 0c-4.15867,0 -7.48701,-3.32835 -7.48701,-7.48701l0 -33.6898c0,-2.89607 1.61457,-5.38701 3.99922,-6.63426 -11.7957,-4.17402 -79.5509,-28.9654 -85.8083,-29.9658l-255.919 0 -77.3611 17.8831 0 11.2311 20.7957 0c4.15985,0 7.48701,3.32717 7.48701,7.48583l0 33.6898c-0.414567,4.57559 -3.74292,7.48701 -7.48701,7.48701l-20.7957 0 0 17.8843 51.1583 9.98151c1.24606,-31.5756 26.6575,-57.254 59.0611,-56.98 32.3185,0 59.0599,26.1449 59.0599,58.643l124.778 0.0011811c0.843308,-33.0496 28.1752,-61.5178 62.139,-58.5638 31.6819,2.31614 55.9819,27.137 55.9819,58.5638l30.3638 0c0,-9.82442 0,-19.6902 0,-29.5299zm-442.542 -14.5571l13.3099 0 0 -19.1327 -13.3099 0 0 19.1327zm442.542 -19.1327l-12.8953 0 0 19.1327 12.8953 0 0 -19.1327zm-222.103 -133.927c0,-28.6807 4.28268,-24.124 -33.6898,-24.124 -3.74292,0 -6.65552,2.91142 -6.65552,6.65552l0.0011811 17.4685c13.4551,0 26.8961,0 40.3441,0zm-22.4599 75.2812l0 -60.3083 -65.7154 0 -42.7772 60.3083 108.493 0zm14.974 -60.3083l0 60.3083 107.169 0 -48.5245 -60.3083 -58.6441 0zm140.165 211.703c-16.637,0 -29.5311,-12.8929 -29.5311,-29.113 0,-16.2213 12.8941,-29.1142 29.5311,-29.1142 16.2201,0 29.1142,12.8929 29.1142,29.1142 0,16.2201 -12.8941,29.113 -29.1142,29.113zm0 -43.6701c-19.702,0 -19.7032,29.113 0,29.113 19.2177,0 19.2177,-29.113 0,-29.113zm-242.899 43.6701c-16.2201,0 -29.1142,-12.8929 -29.1142,-29.113 0,-16.2213 12.8941,-29.1142 29.1142,-29.1142 16.637,0 29.5311,12.8929 29.5311,29.1142 0,16.2201 -12.8941,29.113 -29.5311,29.113zm0 -43.6701c-19.0996,0 -19.0996,29.113 0,29.113 19.5236,0 19.9937,-29.113 0,-29.113zm0.209055 -29.9445c-27.6307,0.12874 -47.3658,23.752 -43.9099,52.9229 3.94725,20.5252 22.0406,36.0815 43.7008,36.0815 24.5386,0 44.504,-19.9642 44.504,-44.5028 0,-24.4713 -19.8508,-44.3882 -44.2949,-44.5016zm274.89 13.8106c-8.31733,-8.70355 -20.1437,-13.813 -32.2004,-13.813 -25.4351,0 -47.3374,22.5898 -44.3315,48.3993 2.6067,22.3855 20.5099,40.6075 44.3315,40.6075 39.7701,0 58.4859,-47.6197 32.2004,-75.1938z"/>
 </g>
</svg>
