<?xml version="1.0" encoding="UTF-8"?>
<!DOCTYPE svg PUBLIC "-//W3C//DTD SVG 1.1//EN" "http://www.w3.org/Graphics/SVG/1.1/DTD/svg11.dtd">
<!-- Creator: CorelDRAW -->
<svg xmlns="http://www.w3.org/2000/svg" xml:space="preserve" width="850px" height="850px" version="1.1" style="shape-rendering:geometricPrecision; text-rendering:geometricPrecision; image-rendering:optimizeQuality; fill-rule:evenodd; clip-rule:evenodd"
viewBox="0 0 850 850"
 xmlns:xlink="http://www.w3.org/1999/xlink">
 <defs>
  <style type="text/css">
   <![CDATA[
    .fil1 {fill:white}
    .fil0 {fill:url(#id0)}
   ]]>
  </style>
  <linearGradient id="id0" gradientUnits="userSpaceOnUse" x1="425" y1="850" x2="425" y2="0">
   <stop offset="0" style="stop-opacity:1; stop-color:#1AA8DC"/>
   <stop offset="0.490196" style="stop-opacity:1; stop-color:#AE3B89"/>
   <stop offset="1" style="stop-opacity:1; stop-color:#F26270"/>
  </linearGradient>
 </defs>
 <g id="Layer_x0020_1">
  <metadata id="CorelCorpID_0Corel-Layer"/>
  <circle class="fil0" cx="425" cy="425" r="425"/>
  <path class="fil1" d="M495 432l-19 0c-4,0 -7,-3 -7,-7 0,-4 3,-7 7,-7l19 0c4,0 8,3 8,7 0,4 -4,7 -8,7zm-259 95l-61 -13c-4,0 -6,-3 -6,-7l0 -31 0 0 0 0 0 -34 0 0 0 0 0 -24c0,-3 2,-6 6,-7l80 -19 51 -73c2,-2 4,-3 6,-3l37 0 0 -17c0,-12 10,-22 21,-22l27 0c12,0 22,10 22,22l0 17 40 0c2,0 4,1 6,3l58 73 113 40c3,1 5,4 5,7l0 3 0 26 33 0c4,0 7,4 7,8l0 33c0,5 -4,8 -7,8l-33 0 0 4c0,4 -3,7 -7,7l-40 0c-7,26 -30,45 -57,45 -28,0 -51,-20 -58,-45l-128 0c-6,25 -29,45 -57,45 -28,0 -52,-20 -58,-46zm37 -136l109 0 0 -60 -66 0 -43 60zm124 0l107 0 -49 -60 -58 0 0 60zm244 92l0 19 25 0 0 -19 -25 0zm-74 -2c-5,-5 -12,-9 -20,-11l0 0 0 0c-1,0 -1,0 -1,0l0 0c-1,0 -1,0 -1,0l0 0c-1,0 -1,0 -2,0 0,0 0,-1 -1,-1l0 0c0,0 0,0 -1,0 0,0 -1,0 -1,0 0,0 -1,0 -1,0 0,0 -1,0 -1,0 -1,0 -1,0 -1,0 -25,0 -45,20 -45,45 0,1 0,2 0,4 0,0 0,0 1,1 0,0 0,1 0,2 4,21 22,37 44,37 24,0 44,-20 44,-44 0,-12 -5,-23 -12,-31l-1 -1 0 0c0,0 0,0 -1,-1zm-273 -12c-24,0 -44,20 -44,45 0,2 0,4 0,5 0,1 0,2 0,3 4,21 22,36 44,36 24,0 44,-20 44,-44 0,-25 -20,-45 -44,-45zm302 44l30 0 0 -1c0,0 0,-1 0,-2 0,-1 0,-2 0,-3l0 -23 -20 0c-4,0 -7,-4 -7,-8l0 -34c0,-2 1,-5 4,-6l-84 -30c-1,0 -1,0 -2,0l-256 0 -77 18 0 11 20 0c5,0 8,3 8,7l0 34c-1,5 -4,8 -8,8l-20 0 0 18 51 10c1,-32 26,-57 57,-57l0 0c1,0 1,0 2,0l0 0c0,0 1,0 1,0l0 0c32,0 58,26 58,58l125 0 0 0c0,-11 3,-21 8,-30 10,-16 28,-27 48,-28l0 0c0,0 1,0 1,0 1,0 1,0 2,0 0,0 1,0 1,0 1,0 1,0 2,0l0 0c31,1 56,27 56,58zm30 -44l0 -19 -13 0 0 19 13 0zm-442 -19l0 19 13 0 0 -19 -13 0zm110 93c-16,0 -29,-13 -29,-29 0,-17 13,-30 29,-30 16,0 29,13 29,30 0,16 -13,29 -29,29zm0 -44c-8,0 -15,7 -15,15 0,7 7,14 15,14 8,0 15,-6 15,-14 0,-9 -6,-15 -15,-15zm243 44c-17,0 -30,-13 -30,-29 0,-17 13,-30 30,-30 16,0 29,13 29,30 0,16 -13,29 -29,29zm0 -44c-9,0 -15,6 -15,15 0,8 6,14 15,14 8,0 14,-6 14,-14 0,-9 -6,-15 -14,-15zm-150 -183c0,0 1,0 2,0 1,0 2,0 3,0l12 0 0 -17c0,-4 -3,-7 -7,-7l-27 0c-3,0 -6,3 -6,7l0 17 23 0zm-33 140l-19 0c-4,0 -8,-4 -8,-8 0,-4 4,-7 8,-7l19 0c4,0 7,3 7,7 0,4 -4,8 -7,8zm40 0l-19 0c-4,0 -7,-4 -7,-8 0,-4 3,-7 7,-7l19 0c4,0 8,3 8,7 0,4 -4,8 -8,8zm41 0l-19 0c-4,0 -7,-4 -7,-8 0,-4 3,-7 7,-7l19 0c4,0 7,3 7,7 0,4 -3,8 -7,8zm40 0l-19 0c-4,0 -7,-4 -7,-8 0,-4 3,-7 7,-7l19 0c4,0 8,3 8,7 0,4 -4,8 -8,8zm-142 -24l-18 0c-5,0 -8,-3 -8,-7 0,-4 3,-7 8,-7l18 0c4,0 8,3 8,7 0,4 -4,7 -8,7zm41 0l-19 0c-4,0 -7,-3 -7,-7 0,-4 3,-7 7,-7l19 0c4,0 8,3 8,7 0,4 -4,7 -8,7zm40 0l-18 0c-4,0 -8,-3 -8,-7 0,-4 4,-7 8,-7l18 0c5,0 8,3 8,7 0,4 -3,7 -8,7zm41 0l-19 0c-4,0 -7,-3 -7,-7 0,-4 3,-7 7,-7l19 0c4,0 7,3 7,7 0,4 -3,7 -7,7z"/>
 </g>
</svg>
